<svg width="31" height="24" fill="none" xmlns="http://www.w3.org/2000/svg"><path d="M2.712 21.147C.98 19.369.048 17.375.048 14.143.048 8.455 4.183 3.358 10.196.837l1.502 2.24C6.086 6.008 4.99 9.812 4.552 12.21c.903-.452 2.086-.61 3.246-.506 3.036.272 5.428 2.678 5.428 5.67a5.59 5.59 0 01-1.725 4.022 5.998 5.998 0 01-4.164 1.666 6.713 6.713 0 01-2.512-.51 6.526 6.526 0 01-2.113-1.406zm16.828 0c-1.733-1.778-2.664-3.772-2.664-7.004 0-5.688 4.135-10.785 10.148-13.306l1.502 2.24c-5.612 2.931-6.709 6.735-7.146 9.134.903-.452 2.086-.61 3.246-.506 3.035.272 5.428 2.678 5.428 5.67a5.59 5.59 0 01-1.725 4.022 5.998 5.998 0 01-4.164 1.666 6.713 6.713 0 01-2.512-.51 6.526 6.526 0 01-2.113-1.406z" fill="#272727"/></svg>