<svg width="43" height="43" fill="none" xmlns="http://www.w3.org/2000/svg"><path d="M42.244 23.283L33.93 34.19c-.504.476-1.113.713-1.827.713a2.526 2.526 0 01-1.827-.734 2.417 2.417 0 01-.756-1.804c0-.713.253-1.321.756-1.825l6.93-9.061-6.93-9.061a2.461 2.461 0 01-.756-1.804c0-.7.253-1.3.756-1.804a2.49 2.49 0 011.827-.755 2.49 2.49 0 011.827.755l8.314 10.865A2.46 2.46 0 0143 21.48c0 .7-.252 1.3-.756 1.804zM21.5 40.315c-.028.084-.07.245-.126.483a6.652 6.652 0 01-.126.482l-.147.44-.21.441-.315.336-.44.293-.568.147-.756.063c-.671 0-1.315-.35-1.931-1.049-.616-.699-.84-1.37-.672-2.013L21.5 2.685C21.976.895 23.32 0 25.531 0c.616 0 1.03.329 1.239.986.21.657.217 1.35.021 2.076L21.5 40.315zm-8.776-6.146a2.526 2.526 0 01-1.827.734c-.714 0-1.323-.237-1.827-.713L.756 23.283A2.46 2.46 0 010 21.479c0-.7.252-1.3.756-1.804L9.07 8.81a2.49 2.49 0 011.827-.755 2.49 2.49 0 011.827.755 2.46 2.46 0 01.755 1.804c0 .699-.252 1.3-.755 1.804l-6.93 9.061 6.93 9.062c.503.503.755 1.111.755 1.824 0 .713-.252 1.315-.755 1.804z" fill="#272727"/></svg>