<svg xmlns="http://www.w3.org/2000/svg" width="13.838" height="23.729" viewBox="0 0 13.838 23.729">
  <g id="Group_53" data-name="Group 53" transform="translate(-7143 971.729) rotate(-90)">
    <g id="Group_15" data-name="Group 15" transform="translate(1242 7166.696)">
      <path id="Path_36" data-name="Path 36" d="M-270.508-12.378l-11.081-11.08a.751.751,0,0,0-.547-.238.752.752,0,0,0-.547.238l-11.08,11.08a.752.752,0,0,0-.238.547.752.752,0,0,0,.238.547l1.189,1.189a.752.752,0,0,0,.547.238.751.751,0,0,0,.547-.238l9.345-9.345,9.345,9.345a.75.75,0,0,0,.546.237.752.752,0,0,0,.547-.237l1.189-1.189a.75.75,0,0,0,.237-.547A.751.751,0,0,0-270.508-12.378Z" fill="#1ed6bb"/>
    </g>
  </g>
</svg>
