<svg xmlns="http://www.w3.org/2000/svg" width="58" height="50.739" viewBox="0 0 58 50.739">
  <g id="Group_14" data-name="Group 14" transform="translate(-227.471 -254.964)">
    <g id="Group_12" data-name="Group 12" transform="translate(227.471 296.697)">
      <path id="Path_23" data-name="Path 23" d="M227.471,656.085h2.89q3.628,0,3.628,2.608a2.217,2.217,0,0,1-1.18,2.246,7.1,7.1,0,0,1-3.058.571q-.177,0-.385-.013c-.139-.009-.246-.018-.321-.027v3.452h-1.573Zm1.573,1.413v2.545a2.788,2.788,0,0,1,.4.04h.369a5.433,5.433,0,0,0,1.9-.265,1.06,1.06,0,0,0,.682-1.1.954.954,0,0,0-.586-.971,4.236,4.236,0,0,0-1.613-.249Z" transform="translate(-227.471 -656.085)" fill="#fff"/>
      <path id="Path_24" data-name="Path 24" d="M305.671,688.035l-.193-.45a10.075,10.075,0,0,1-1.035.433,3.01,3.01,0,0,1-.971.144,1.864,1.864,0,0,1-1.822-.811,4.223,4.223,0,0,1-.425-1.983v-3.516h1.525v3.724a1.631,1.631,0,0,0,.241.883.958.958,0,0,0,.883.385,2.665,2.665,0,0,0,1.348-.369v-4.623h1.509v6.181Z" transform="translate(-293.551 -679.173)" fill="#fff"/>
      <path id="Path_25" data-name="Path 25" d="M370.052,681.023l.193.449a3.3,3.3,0,0,1,1.814-.546,2.685,2.685,0,0,1,1.124.241l-.305,1.4-.064.016a2.553,2.553,0,0,0-1.316-.321,2.917,2.917,0,0,0-1.011.177v4.752H368.96v-6.164Z" transform="translate(-354.239 -678.342)" fill="#fff"/>
      <path id="Path_26" data-name="Path 26" d="M418.261,680.927a2.687,2.687,0,0,1,2.143.859,3.465,3.465,0,0,1,.746,2.352v.594h-4.19a1.327,1.327,0,0,0,.546,1.092,2.553,2.553,0,0,0,1.365.3,7.015,7.015,0,0,0,1.7-.193l.273,1.044a6.5,6.5,0,0,1-2.183.369,3.177,3.177,0,0,1-2.424-.883,3.249,3.249,0,0,1-.835-2.328,3.46,3.46,0,0,1,.4-1.694,2.927,2.927,0,0,1,1.051-1.124A2.667,2.667,0,0,1,418.261,680.927Zm.032,1.2a1.2,1.2,0,0,0-.875.4,1.647,1.647,0,0,0-.425,1.124h2.633a1.593,1.593,0,0,0-.369-1.132A1.26,1.26,0,0,0,418.294,682.131Z" transform="translate(-395.851 -678.342)" fill="#fff"/>
      <path id="Path_27" data-name="Path 27" d="M476.814,656.24H478.6l2.456,7.144,2.231-7.144h1.686l-3.05,8.829h-1.878Z" transform="translate(-450.872 -656.224)" fill="#fff"/>
      <path id="Path_28" data-name="Path 28" d="M563.952,680.927a2.961,2.961,0,0,1,2.175.642,2.535,2.535,0,0,1,.618,1.83v3.789h-1.22l-.177-.433a2.788,2.788,0,0,1-1.8.578,2.318,2.318,0,0,1-1.589-.522,1.836,1.836,0,0,1,.072-2.768,3.057,3.057,0,0,1,1.9-.514h1.2a1.679,1.679,0,0,0-.289-1.142,1.59,1.59,0,0,0-1.14-.3,4.484,4.484,0,0,0-1.573.321l-.241-1.059A6.81,6.81,0,0,1,563.952,680.927Zm1.252,4.9v-1.316l-1.092.112q-1.2,0-1.2.754a.707.707,0,0,0,.273.59,1.2,1.2,0,0,0,.755.213,2.641,2.641,0,0,0,.546-.048,1.816,1.816,0,0,0,.433-.153Q565.123,685.872,565.2,685.823Z" transform="translate(-526.628 -678.342)" fill="#fff"/>
      <path id="Path_29" data-name="Path 29" d="M630.239,664.01a2.88,2.88,0,0,0,.738-.112v1.011a3.248,3.248,0,0,1-1.38.3q-1.574,0-1.573-1.734v-7.24h1.509v6.791a1.414,1.414,0,0,0,.153.73A.6.6,0,0,0,630.239,664.01Z" transform="translate(-586.35 -656.224)" fill="#fff"/>
      <path id="Path_30" data-name="Path 30" d="M669.193,688.035l-.193-.45a10.092,10.092,0,0,1-1.035.433,3.01,3.01,0,0,1-.971.144,1.863,1.863,0,0,1-1.822-.811,4.222,4.222,0,0,1-.426-1.983v-3.516h1.525v3.724a1.631,1.631,0,0,0,.241.883.958.958,0,0,0,.883.385,2.665,2.665,0,0,0,1.349-.369v-4.623h1.509v6.181Z" transform="translate(-619.251 -679.173)" fill="#fff"/>
      <path id="Path_31" data-name="Path 31" d="M732.561,680.927a2.687,2.687,0,0,1,2.143.859,3.465,3.465,0,0,1,.746,2.352v.594h-4.19a1.327,1.327,0,0,0,.546,1.092,2.553,2.553,0,0,0,1.365.3,7.016,7.016,0,0,0,1.7-.193l.273,1.044a6.5,6.5,0,0,1-2.183.369,3.177,3.177,0,0,1-2.424-.883,3.248,3.248,0,0,1-.835-2.328,3.462,3.462,0,0,1,.4-1.694,2.928,2.928,0,0,1,1.052-1.124A2.667,2.667,0,0,1,732.561,680.927Zm.032,1.2a1.2,1.2,0,0,0-.875.4,1.647,1.647,0,0,0-.425,1.124h2.633a1.593,1.593,0,0,0-.369-1.132A1.261,1.261,0,0,0,732.593,682.131Z" transform="translate(-677.45 -678.342)" fill="#fff"/>
    </g>
    <g id="Group_13" data-name="Group 13" transform="translate(230.432 254.964)">
      <path id="Path_32" data-name="Path 32" d="M678.381,261.79v-1.822c0-1.907-1.161-4.144-2.929-4.693h8.43Z" transform="translate(-631.805 -255.243)" fill="#1ed6bb"/>
      <path id="Path_33" data-name="Path 33" d="M429.016,259.851a8.3,8.3,0,0,0-4.369-4.576h2.284c7.022,0,11.7,1.74,14.6,8.128l6.909,15.315,5.484-12.263h.724l-11.081,24.759Z" transform="translate(-407.094 -255.243)" fill="#fff"/>
      <path id="Path_34" data-name="Path 34" d="M258.863,285.833V259.708c0-1.939-1.169-4.176-2.931-4.744h2.931a10.446,10.446,0,0,1,10.325,10.38v3.44c-.33,2.675-2.161,4.15-4.783,4.8h2.7a20.066,20.066,0,0,0,2.081-.105v12.35c0,1.937,1.169,4.171,2.958,4.72H255.932C257.694,290,258.863,287.771,258.863,285.833Z" transform="translate(-255.932 -254.964)" fill="#fff"/>
      <path id="Path_35" data-name="Path 35" d="M383.312,255.275h1.623a8.382,8.382,0,0,1,8.545,8.442c0,6.927-5.394,10.182-12.3,10.182h-2.7c2.9-.724,4.837-2.454,4.837-5.709Z" transform="translate(-365.725 -255.243)" fill="#fff"/>
    </g>
  </g>
</svg>
