<svg xmlns="http://www.w3.org/2000/svg" xmlns:xlink="http://www.w3.org/1999/xlink" width="122" height="46.289" viewBox="0 0 122 46.289">
  <defs>
    <radialGradient id="radial-gradient" cx="0.5" cy="0.5" r="0.491" gradientTransform="translate(0)" gradientUnits="objectBoundingBox">
      <stop offset="0.614" stop-color="#fff"/>
      <stop offset="0.634" stop-color="#fff" stop-opacity="0.937"/>
      <stop offset="0.765" stop-color="#fff" stop-opacity="0.541"/>
      <stop offset="0.869" stop-color="#fff" stop-opacity="0.251"/>
      <stop offset="0.944" stop-color="#fff" stop-opacity="0.071"/>
      <stop offset="0.981" stop-color="#fff" stop-opacity="0"/>
    </radialGradient>
  </defs>
  <g id="Group_30" data-name="Group 30" transform="translate(521.72 240.061)">
    <path id="Path_14" data-name="Path 14" d="M-498.577-193.772a23.144,23.144,0,0,0,23.145-23.143c0-.68-.031-1.351-.088-2.016h-10.347v.009h-2.739v5.679h2.363a12.871,12.871,0,0,1-12.334,9.191,12.864,12.864,0,0,1-12.864-12.863,12.865,12.865,0,0,1,12.864-12.865,12.875,12.875,0,0,1,12.115,8.521l10.622.007a23.15,23.15,0,0,0-22.737-18.808,23.146,23.146,0,0,0-23.143,23.146A23.144,23.144,0,0,0-498.577-193.772Z" fill-rule="evenodd" fill="url(#radial-gradient)"/>
    <g id="Group_8" data-name="Group 8" transform="translate(-467.444 -223.699)">
      <path id="Path_15" data-name="Path 15" d="M-352.4-178.206a2.4,2.4,0,0,0-2.4-2.645c-1.41,0-2.3.942-2.3,2.645s.885,2.654,2.3,2.654a2.4,2.4,0,0,0,2.4-2.654Zm1.186-3.514h0v6.907a3.181,3.181,0,0,1-3.473,3.273,3.622,3.622,0,0,1-3.409-1.744l1-.63a2.568,2.568,0,0,0,2.306,1.322,2.106,2.106,0,0,0,2.389-2.293v-1h-.174a2.6,2.6,0,0,1-2.5,1.4c-1.873,0-3.228-1.474-3.228-3.725s1.355-3.716,3.228-3.716a2.6,2.6,0,0,1,2.5,1.41h.2v-1.207Z" transform="translate(358.307 184.87)" fill="#dad9d9" fill-rule="evenodd"/>
      <path id="Path_16" data-name="Path 16" d="M-328.651-175.507a2.43,2.43,0,0,0,2.442-2.67,2.422,2.422,0,0,0-2.442-2.673,2.442,2.442,0,0,0-2.437,2.673,2.409,2.409,0,0,0,2.437,2.67Zm0-6.415h0a3.536,3.536,0,0,1,3.639,3.744,3.539,3.539,0,0,1-3.639,3.742,3.535,3.535,0,0,1-3.626-3.742A3.533,3.533,0,0,1-328.651-181.922Z" transform="translate(340.923 184.87)" fill="#dad9d9" fill-rule="evenodd"/>
      <rect id="Rectangle_6" data-name="Rectangle 6" width="1.197" height="10.136" transform="translate(17.446 0.097)" fill="#dad9d9"/>
      <path id="Path_17" data-name="Path 17" d="M-296.343-183.925a2.4,2.4,0,0,0,2.418,2.674,2.441,2.441,0,0,0,2.467-2.674,2.441,2.441,0,0,0-2.467-2.669,2.4,2.4,0,0,0-2.418,2.669Zm6.072,3.553h-1.157v-1.217h-.2a2.708,2.708,0,0,1-2.567,1.409,3.458,3.458,0,0,1-3.355-3.746,3.453,3.453,0,0,1,3.355-3.74,2.707,2.707,0,0,1,2.567,1.4h.175v-4.246h1.186Z" transform="translate(317.732 190.605)" fill="#dad9d9" fill-rule="evenodd"/>
      <path id="Path_18" data-name="Path 18" d="M-265.345-178.8a2.015,2.015,0,0,0-2.17-2.071,2.2,2.2,0,0,0-2.307,2.071Zm-2.17-3.123h0a3.257,3.257,0,0,1,3.411,3.495v.6h-5.718a2.3,2.3,0,0,0,2.393,2.337,2.195,2.195,0,0,0,2.169-1.39l1.028.536a3.3,3.3,0,0,1-3.181,1.906,3.587,3.587,0,0,1-3.654-3.8A3.517,3.517,0,0,1-267.515-181.922Z" transform="translate(300.043 184.87)" fill="#dad9d9" fill-rule="evenodd"/>
      <path id="Path_19" data-name="Path 19" d="M-244.3-181.593v1.261h.2a2.489,2.489,0,0,1,2.456-1.4,2.71,2.71,0,0,1,2.8,2.935v4.286h-1.186v-4.176a1.778,1.778,0,0,0-1.98-1.978c-1.35,0-2.268.879-2.268,2.562v3.593h-1.2v-7.082Z" transform="translate(282.943 184.744)" fill="#dad9d9" fill-rule="evenodd"/>
      <rect id="Rectangle_7" data-name="Rectangle 7" width="1.197" height="10.136" transform="translate(46.081 0.097)" fill="#dad9d9"/>
      <rect id="Rectangle_8" data-name="Rectangle 8" width="1.196" height="7.082" transform="translate(49.325 3.151)" fill="#dad9d9"/>
      <path id="Path_20" data-name="Path 20" d="M-209.956-190.8h0a.942.942,0,0,1,.98.954.945.945,0,0,1-.98.962.936.936,0,0,1-.966-.962A.934.934,0,0,1-209.956-190.8Z" transform="translate(259.874 190.799)" fill="#dad9d9" fill-rule="evenodd"/>
      <path id="Path_21" data-name="Path 21" d="M-198.872-181.593v1.261h.2a2.487,2.487,0,0,1,2.456-1.4,2.71,2.71,0,0,1,2.8,2.935v4.286H-194.6v-4.176a1.778,1.778,0,0,0-1.98-1.978c-1.349,0-2.268.879-2.268,2.562v3.593h-1.2v-7.082Z" transform="translate(252.607 184.744)" fill="#dad9d9" fill-rule="evenodd"/>
      <path id="Path_22" data-name="Path 22" d="M-169.651-178.8a2.019,2.019,0,0,0-2.173-2.071,2.2,2.2,0,0,0-2.307,2.071Zm-2.173-3.123h0a3.257,3.257,0,0,1,3.413,3.495v.6h-5.72a2.3,2.3,0,0,0,2.395,2.337,2.2,2.2,0,0,0,2.167-1.39l1.028.536a3.3,3.3,0,0,1-3.181,1.906,3.589,3.589,0,0,1-3.654-3.8A3.517,3.517,0,0,1-171.824-181.922Z" transform="translate(236.135 184.87)" fill="#dad9d9" fill-rule="evenodd"/>
    </g>
  </g>
</svg>
