<svg xmlns="http://www.w3.org/2000/svg" xmlns:xlink="http://www.w3.org/1999/xlink"><defs><clipPath id="clip0"><path fill="#fff" transform="rotate(135 9.672 11.328)" d="M0 0h17v17H0z"/></clipPath></defs><symbol id="eye"><path d="M13 6.25a3 3 0 11-6 0 3 3 0 016 0zM10 0C8.28 0 6.5.45 4.82 1.29a13.23 13.23 0 00-3.53 2.67C.77 4.54.11 5.36 0 6.25c.01.77.8 1.71 1.29 2.29 1 1.08 2.18 1.96 3.53 2.67 1.57.8 3.3 1.26 5.18 1.28a11.93 11.93 0 008.71-3.95c.52-.58 1.18-1.4 1.29-2.29-.01-.77-.8-1.71-1.29-2.29-1-1.08-2.18-1.96-3.53-2.67A11.82 11.82 0 0010 0zm0 1.55a4.7 4.7 0 11.02 9.4 4.7 4.7 0 01-.02-9.4z"/></symbol><symbol id="html5" viewBox="0 0 74 74"><path d="M4.63 0h64.75l-5.9 66.48L36.94 74l-26.4-7.52L4.63 0zM26.3 30.06l-.7-8.38 31 .01.72-8.08-40.64-.01 2.16 24.7h28.13l-1 10.56L37 51.33l-9.1-2.49-.6-6.5h-8.04l1.02 12.86L37 59.67l16.59-4.46 2.28-25.15H26.3z"/></symbol><symbol id="js" viewBox="0 0 66 66"><path d="M0 0h66v66H0V0zm60.6 50.26c-.49-3.02-2.45-5.54-8.26-7.9-2.02-.95-4.28-1.61-4.95-3.14-.24-.9-.29-1.4-.13-1.93.42-1.79 2.52-2.31 4.17-1.82a4.47 4.47 0 012.69 2.47c2.84-1.86 2.84-1.86 4.82-3.1a10.83 10.83 0 00-1.6-2.13c-1.74-1.94-4.05-2.93-7.8-2.85l-1.94.25a8.85 8.85 0 00-4.7 2.76c-3.13 3.55-2.23 9.74 1.56 12.3 3.75 2.8 9.24 3.42 9.95 6.06.65 3.23-2.4 4.26-5.42 3.88-2.22-.5-3.45-1.6-4.82-3.67l-5.03 2.89c.57 1.32 1.24 1.89 2.23 3.05 4.78 4.82 16.74 4.58 18.89-2.76.07-.25.66-1.95.2-4.54l.14.18zM35.89 30.34h-6.18c0 5.32-.03 10.62-.03 15.96 0 3.38.17 6.5-.38 7.45-.91 1.9-3.24 1.66-4.3 1.33a5.24 5.24 0 01-2.28-2.36c-.19-.29-.31-.53-.36-.53l-5.01 3.1a9.7 9.7 0 003.64 4.16c2.35 1.4 5.51 1.86 8.82 1.12 2.15-.63 4-1.9 4.97-3.88 1.4-2.56 1.1-5.7 1.1-9.2.03-5.66 0-11.3 0-17l.01-.15z"/></symbol><symbol id="load" viewBox="0 0 25 25"><g clip-path="url(#clip0)"><path clip-rule="evenodd" d="M19.27 7.31c2.87 2.97 2.88 7.61.03 10.35a6.73 6.73 0 01-9.78-.12l-1.1 1.1a.57.57 0 01-.56-.57l-.12-2.73a.55.55 0 01.55-.56l2.65.2a.57.57 0 01.56.57l-1 1a5.34 5.34 0 007.86.13 6 6 0 00-.02-8.47 6 6 0 00-8.37-.42l-.96-.96c2.85-2.66 7.43-2.46 10.26.48z"/></g></symbol><symbol id="npm" viewBox="0 0 80 32"><path d="M0 .45v26.67h22.21v4.43H40v-4.43h40V.45H0zm22.21 22.2h-4.43V9.32h-4.45v13.33H4.45V4.9h17.76v17.76zm13.34 0v4.47h-8.88V4.89h17.78v17.78h-8.9v-.02zm40.01 0h-4.44V9.32h-4.45v13.33h-4.45V9.32h-4.43v13.33h-8.91V4.9h26.68v17.76zM35.55 9.33H40v8.9h-4.45v-8.9z"/></symbol><symbol id="tag" viewBox="0 0 43 43"><path d="M42.24 23.28L33.93 34.2c-.5.48-1.11.71-1.83.71-.71 0-1.32-.24-1.82-.73s-.76-1.1-.76-1.8c0-.72.25-1.33.76-1.83l6.93-9.06-6.93-9.06c-.5-.5-.76-1.1-.76-1.8s.25-1.3.76-1.81c.5-.5 1.1-.76 1.82-.76s1.33.26 1.83.76l8.31 10.87c.5.5.76 1.1.76 1.8s-.25 1.3-.76 1.8zM21.5 40.32l-.13.48-.12.48-.15.44-.2.44-.32.34-.44.29-.57.15-.76.06c-.67 0-1.31-.35-1.93-1.05-.61-.7-.84-1.37-.67-2.01L21.5 2.68C21.98.9 23.32 0 25.53 0c.62 0 1.03.33 1.24.99.21.65.22 1.35.02 2.07L21.5 40.32zm-8.78-6.15c-.5.49-1.1.73-1.82.73s-1.33-.23-1.83-.71L.76 23.29c-.5-.51-.76-1.11-.76-1.81s.25-1.3.76-1.8L9.07 8.8c.5-.5 1.11-.76 1.83-.76.71 0 1.32.26 1.82.76s.76 1.1.76 1.8-.25 1.3-.76 1.8L5.8 21.49l6.93 9.06c.5.5.76 1.11.76 1.83 0 .7-.25 1.31-.76 1.8z"/></symbol><symbol id="webpack" viewBox="0 0 70 77"><path d="M67.3 58.93L36.27 76.41V62.8l19.35-10.6 11.7 6.74zm2.14-1.91V20.44l-11.37 6.54v23.5l11.37 6.54zM2.48 58.93l31.05 17.48V62.8L14.19 52.2l-11.7 6.74zM.36 57.02V20.44l11.36 6.54v23.5L.36 57.02zm1.33-38.95L33.53.14v13.17L12.98 24.57l-11.3-6.5zm66.41 0L36.26.14v13.17l20.55 11.26 11.3-6.5zM33.53 59.7L14.45 49.25v-20.7l19.08 10.97V59.7zm2.73 0l19.08-10.45v-20.7L36.26 39.52V59.7zM15.74 26.15L34.9 15.67l19.16 10.48L34.9 37.17 15.74 26.15z"/></symbol></svg>